<svg width="45" height="45" viewBox="0 0 45 45" fill="none" xmlns="http://www.w3.org/2000/svg">
<circle cx="22.5" cy="22.5" r="22.5" fill="#267C71" fill-opacity="0.5"/>
<path d="M33.2667 29.6155H31.8V19.9236C31.8 19.5564 31.6455 19.2043 31.3704 18.9446C31.0954 18.685 30.7223 18.5391 30.3333 18.5391H24.4667V14.3854C24.4668 14.1347 24.3949 13.8887 24.2585 13.6735C24.1221 13.4584 23.9264 13.2823 23.6922 13.1639C23.4581 13.0456 23.1943 12.9895 22.929 13.0016C22.6637 13.0138 22.4069 13.0937 22.186 13.2328L14.8527 17.8468C14.6515 17.9735 14.4866 18.1452 14.3728 18.3466C14.2589 18.548 14.1995 18.7729 14.2 19.0012V29.6155H12.7333C12.5388 29.6155 12.3523 29.6884 12.2148 29.8182C12.0773 29.948 12 30.1241 12 30.3077C12 30.4913 12.0773 30.6674 12.2148 30.7972C12.3523 30.9271 12.5388 31 12.7333 31H33.2667C33.4612 31 33.6477 30.9271 33.7852 30.7972C33.9227 30.6674 34 30.4913 34 30.3077C34 30.1241 33.9227 29.948 33.7852 29.8182C33.6477 29.6884 33.4612 29.6155 33.2667 29.6155ZM30.3333 19.9236V29.6155H24.4667V19.9236H30.3333ZM15.6667 19.0012L23 14.3854V29.6155H15.6667V19.0012ZM21.5333 21.3082V22.6927C21.5333 22.8763 21.4561 23.0524 21.3185 23.1822C21.181 23.3121 20.9945 23.385 20.8 23.385C20.6055 23.385 20.419 23.3121 20.2815 23.1822C20.1439 23.0524 20.0667 22.8763 20.0667 22.6927V21.3082C20.0667 21.1246 20.1439 20.9485 20.2815 20.8187C20.419 20.6888 20.6055 20.6159 20.8 20.6159C20.9945 20.6159 21.181 20.6888 21.3185 20.8187C21.4561 20.9485 21.5333 21.1246 21.5333 21.3082ZM18.6 21.3082V22.6927C18.6 22.8763 18.5227 23.0524 18.3852 23.1822C18.2477 23.3121 18.0612 23.385 17.8667 23.385C17.6722 23.385 17.4856 23.3121 17.3481 23.1822C17.2106 23.0524 17.1333 22.8763 17.1333 22.6927V21.3082C17.1333 21.1246 17.2106 20.9485 17.3481 20.8187C17.4856 20.6888 17.6722 20.6159 17.8667 20.6159C18.0612 20.6159 18.2477 20.6888 18.3852 20.8187C18.5227 20.9485 18.6 21.1246 18.6 21.3082ZM18.6 26.1541V27.5386C18.6 27.7222 18.5227 27.8983 18.3852 28.0281C18.2477 28.158 18.0612 28.2309 17.8667 28.2309C17.6722 28.2309 17.4856 28.158 17.3481 28.0281C17.2106 27.8983 17.1333 27.7222 17.1333 27.5386V26.1541C17.1333 25.9705 17.2106 25.7944 17.3481 25.6646C17.4856 25.5348 17.6722 25.4618 17.8667 25.4618C18.0612 25.4618 18.2477 25.5348 18.3852 25.6646C18.5227 25.7944 18.6 25.9705 18.6 26.1541ZM21.5333 26.1541V27.5386C21.5333 27.7222 21.4561 27.8983 21.3185 28.0281C21.181 28.158 20.9945 28.2309 20.8 28.2309C20.6055 28.2309 20.419 28.158 20.2815 28.0281C20.1439 27.8983 20.0667 27.7222 20.0667 27.5386V26.1541C20.0667 25.9705 20.1439 25.7944 20.2815 25.6646C20.419 25.5348 20.6055 25.4618 20.8 25.4618C20.9945 25.4618 21.181 25.5348 21.3185 25.6646C21.4561 25.7944 21.5333 25.9705 21.5333 26.1541Z" fill="white"/>
</svg>
