<svg width="45" height="45" viewBox="0 0 45 45" fill="none" xmlns="http://www.w3.org/2000/svg">
<circle cx="22.5" cy="22.5" r="22.5" fill="#267C71" fill-opacity="0.5"/>
<path d="M30.5 14.4615H28.25V13.7308C28.25 13.537 28.171 13.3511 28.0303 13.214C27.8897 13.077 27.6989 13 27.5 13C27.3011 13 27.1103 13.077 26.9697 13.214C26.829 13.3511 26.75 13.537 26.75 13.7308V14.4615H19.25V13.7308C19.25 13.537 19.171 13.3511 19.0303 13.214C18.8897 13.077 18.6989 13 18.5 13C18.3011 13 18.1103 13.077 17.9697 13.214C17.829 13.3511 17.75 13.537 17.75 13.7308V14.4615H15.5C15.1022 14.4615 14.7206 14.6155 14.4393 14.8896C14.158 15.1637 14 15.5355 14 15.9231V30.5385C14 30.9261 14.158 31.2978 14.4393 31.5719C14.7206 31.846 15.1022 32 15.5 32H30.5C30.8978 32 31.2794 31.846 31.5607 31.5719C31.842 31.2978 32 30.9261 32 30.5385V15.9231C32 15.5355 31.842 15.1637 31.5607 14.8896C31.2794 14.6155 30.8978 14.4615 30.5 14.4615ZM17.75 15.9231V16.6538C17.75 16.8477 17.829 17.0335 17.9697 17.1706C18.1103 17.3076 18.3011 17.3846 18.5 17.3846C18.6989 17.3846 18.8897 17.3076 19.0303 17.1706C19.171 17.0335 19.25 16.8477 19.25 16.6538V15.9231H26.75V16.6538C26.75 16.8477 26.829 17.0335 26.9697 17.1706C27.1103 17.3076 27.3011 17.3846 27.5 17.3846C27.6989 17.3846 27.8897 17.3076 28.0303 17.1706C28.171 17.0335 28.25 16.8477 28.25 16.6538V15.9231H30.5V18.8462H15.5V15.9231H17.75ZM30.5 30.5385H15.5V20.3077H30.5V30.5385ZM21.5 22.5V28.3462C21.5 28.54 21.421 28.7258 21.2803 28.8629C21.1397 28.9999 20.9489 29.0769 20.75 29.0769C20.5511 29.0769 20.3603 28.9999 20.2197 28.8629C20.079 28.7258 20 28.54 20 28.3462V23.682L19.5856 23.8848C19.4076 23.9715 19.2015 23.9858 19.0127 23.9245C18.8239 23.8632 18.6678 23.7312 18.5787 23.5578C18.4897 23.3843 18.4751 23.1835 18.538 22.9995C18.601 22.8155 18.7363 22.6635 18.9144 22.5767L20.4144 21.846C20.5288 21.7902 20.6559 21.7638 20.7837 21.7694C20.9114 21.775 21.0356 21.8124 21.1444 21.8779C21.2532 21.9435 21.343 22.035 21.4052 22.1439C21.4675 22.2528 21.5001 22.3754 21.5 22.5ZM27.0463 25.2815L25.25 27.6154H26.75C26.9489 27.6154 27.1397 27.6924 27.2803 27.8294C27.421 27.9665 27.5 28.1523 27.5 28.3462C27.5 28.54 27.421 28.7258 27.2803 28.8629C27.1397 28.9999 26.9489 29.0769 26.75 29.0769H23.75C23.6107 29.0769 23.4742 29.0391 23.3557 28.9678C23.2372 28.8964 23.1415 28.7943 23.0792 28.673C23.0169 28.5516 22.9905 28.4157 23.003 28.2805C23.0155 28.1454 23.0664 28.0163 23.15 27.9077L25.8481 24.4027C25.9095 24.3231 25.9535 24.2321 25.9775 24.1354C26.0015 24.0386 26.0049 23.938 25.9876 23.8399C25.9703 23.7418 25.9325 23.6482 25.8767 23.5648C25.8209 23.4814 25.7482 23.4099 25.6631 23.3549C25.5779 23.2999 25.4821 23.2623 25.3816 23.2447C25.281 23.227 25.1778 23.2295 25.0783 23.2521C24.9788 23.2747 24.885 23.3169 24.8028 23.3761C24.7206 23.4352 24.6517 23.5101 24.6003 23.5962C24.5525 23.6819 24.4876 23.7575 24.4093 23.8184C24.3311 23.8793 24.2411 23.9243 24.1447 23.9508C24.0483 23.9773 23.9474 23.9847 23.8481 23.9725C23.7487 23.9604 23.6528 23.929 23.5661 23.8802C23.4794 23.8314 23.4035 23.7662 23.3431 23.6884C23.2827 23.6105 23.2389 23.5217 23.2142 23.4271C23.1896 23.3325 23.1847 23.2341 23.1997 23.1376C23.2148 23.0411 23.2495 22.9486 23.3019 22.8654C23.5496 22.4476 23.9319 22.1212 24.3894 21.9367C24.8469 21.7521 25.3541 21.7198 25.8324 21.8447C26.3107 21.9696 26.7333 22.2447 27.0348 22.6274C27.3363 23.0101 27.4998 23.4791 27.5 23.9615C27.5016 24.4381 27.3421 24.902 27.0463 25.2815Z" fill="white"/>
</svg>
