<svg width="45" height="45" viewBox="0 0 45 45" fill="none" xmlns="http://www.w3.org/2000/svg">
<circle cx="22.5" cy="22.5" r="22.5" fill="#267C71" fill-opacity="0.5"/>
<path d="M29.8139 18.7682L25.3593 14.1913C25.3002 14.1306 25.23 14.0824 25.1527 14.0496C25.0755 14.0168 24.9927 13.9999 24.9091 14H17.2727C16.9352 14 16.6115 14.1378 16.3728 14.383C16.1341 14.6283 16 14.9609 16 15.3077V29.6923C16 30.0391 16.1341 30.3717 16.3728 30.617C16.6115 30.8622 16.9352 31 17.2727 31H28.7273C29.0648 31 29.3885 30.8622 29.6272 30.617C29.8659 30.3717 30 30.0391 30 29.6923V19.2308C30.0001 19.1449 29.9837 19.0598 29.9517 18.9804C29.9198 18.9011 29.8729 18.8289 29.8139 18.7682ZM25.5455 16.2321L27.8276 18.5769H25.5455V16.2321ZM28.7273 29.6923H17.2727V15.3077H24.2727V19.2308C24.2727 19.4042 24.3398 19.5705 24.4591 19.6931C24.5785 19.8157 24.7403 19.8846 24.9091 19.8846H28.7273V29.6923Z" fill="white"/>
</svg>
