<svg width="45" height="45" viewBox="0 0 45 45" fill="none" xmlns="http://www.w3.org/2000/svg">
<circle cx="22.5" cy="22.5" r="22.5" fill="#267C71" fill-opacity="0.5"/>
<path d="M22.5 17.0715C21.8257 17.0715 21.1666 17.2705 20.606 17.6433C20.0454 18.0161 19.6084 18.546 19.3504 19.166C19.0924 19.7859 19.0249 20.4681 19.1564 21.1263C19.288 21.7844 19.6126 22.389 20.0894 22.8635C20.5662 23.338 21.1736 23.6611 21.8349 23.7921C22.4962 23.923 23.1817 23.8558 23.8046 23.599C24.4275 23.3422 24.96 22.9073 25.3346 22.3493C25.7092 21.7914 25.9091 21.1354 25.9091 20.4644C25.9091 19.5645 25.5499 18.7015 24.9106 18.0652C24.2713 17.4289 23.4041 17.0715 22.5 17.0715ZM22.5 22.5001C22.0954 22.5001 21.7 22.3807 21.3636 22.157C21.0272 21.9333 20.7651 21.6154 20.6102 21.2434C20.4554 20.8714 20.4149 20.4621 20.4938 20.0672C20.5728 19.6723 20.7676 19.3096 21.0536 19.0249C21.3397 18.7402 21.7042 18.5463 22.101 18.4677C22.4977 18.3892 22.909 18.4295 23.2828 18.5836C23.6565 18.7377 23.976 18.9986 24.2007 19.3334C24.4255 19.6681 24.5455 20.0617 24.5455 20.4644C24.5455 21.0043 24.33 21.5221 23.9464 21.9038C23.5628 22.2856 23.0425 22.5001 22.5 22.5001ZM22.5 13C20.5116 13.0022 18.6052 13.7894 17.1992 15.1887C15.7932 16.5881 15.0023 18.4854 15 20.4644C15 23.1278 16.2366 25.9507 18.5795 28.6285C19.6323 29.8385 20.8171 30.9282 22.1122 31.8772C22.2269 31.9571 22.3634 32 22.5034 32C22.6434 32 22.78 31.9571 22.8946 31.8772C24.1873 30.9278 25.3698 29.8382 26.4205 28.6285C28.7599 25.9507 30 23.1278 30 20.4644C29.9977 18.4854 29.2068 16.5881 27.8008 15.1887C26.3948 13.7894 24.4884 13.0022 22.5 13ZM22.5 30.4734C21.0912 29.3707 16.3636 25.3204 16.3636 20.4644C16.3636 18.8446 17.0101 17.2912 18.1609 16.1459C19.3117 15.0006 20.8725 14.3572 22.5 14.3572C24.1275 14.3572 25.6883 15.0006 26.8391 16.1459C27.9899 17.2912 28.6364 18.8446 28.6364 20.4644C28.6364 25.3187 23.9088 29.3707 22.5 30.4734Z" fill="white"/>
</svg>
