<svg width="45" height="45" viewBox="0 0 45 45" fill="none" xmlns="http://www.w3.org/2000/svg">
<circle cx="22.5" cy="22.5" r="22.5" fill="#267C71" fill-opacity="0.5"/>
<path d="M22.5 13C20.6211 13 18.7844 13.5572 17.2221 14.601C15.6598 15.6449 14.4422 17.1286 13.7231 18.8645C13.0041 20.6004 12.816 22.5105 13.1825 24.3534C13.5491 26.1962 14.4539 27.8889 15.7825 29.2175C17.1111 30.5461 18.8038 31.4509 20.6466 31.8175C22.4895 32.184 24.3996 31.9959 26.1355 31.2769C27.8714 30.5578 29.3551 29.3402 30.399 27.7779C31.4428 26.2156 32 24.3789 32 22.5C31.9973 19.9813 30.9956 17.5664 29.2146 15.7854C27.4336 14.0044 25.0187 13.0027 22.5 13ZM22.5 30.5385C20.9101 30.5385 19.356 30.067 18.0341 29.1837C16.7122 28.3005 15.6818 27.045 15.0734 25.5762C14.465 24.1073 14.3058 22.4911 14.616 20.9318C14.9262 19.3725 15.6918 17.9401 16.816 16.8159C17.9402 15.6918 19.3725 14.9262 20.9318 14.616C22.4911 14.3058 24.1074 14.465 25.5762 15.0734C27.045 15.6818 28.3005 16.7122 29.1837 18.0341C30.067 19.356 30.5385 20.9101 30.5385 22.5C30.536 24.6312 29.6884 26.6744 28.1814 28.1814C26.6744 29.6884 24.6312 30.536 22.5 30.5385ZM24.6092 23.6153C25.1834 23.3079 25.6384 22.8174 25.9021 22.2218C26.1658 21.6262 26.223 20.9597 26.0647 20.3278C25.9063 19.696 25.5415 19.1352 25.0281 18.7344C24.5147 18.3336 23.8821 18.1157 23.2308 18.1154H20.3077C20.1139 18.1154 19.928 18.1924 19.791 18.3294C19.6539 18.4665 19.5769 18.6523 19.5769 18.8462V26.1538C19.5769 26.3477 19.6539 26.5335 19.791 26.6706C19.928 26.8076 20.1139 26.8846 20.3077 26.8846C20.5015 26.8846 20.6874 26.8076 20.8244 26.6706C20.9615 26.5335 21.0385 26.3477 21.0385 26.1538V23.9615H23.0837L24.8193 26.5594C24.9268 26.7208 25.0941 26.8328 25.2843 26.8708C25.4744 26.9088 25.6719 26.8698 25.8332 26.7622C25.9946 26.6546 26.1066 26.4874 26.1446 26.2972C26.1826 26.1071 26.1436 25.9096 26.036 25.7483L24.6092 23.6153ZM21.0385 19.5769H23.2308C23.6184 19.5769 23.9901 19.7309 24.2642 20.005C24.5383 20.2791 24.6923 20.6508 24.6923 21.0385C24.6923 21.4261 24.5383 21.7978 24.2642 22.0719C23.9901 22.346 23.6184 22.5 23.2308 22.5H21.0385V19.5769Z" fill="white"/>
</svg>
