<svg width="45" height="45" viewBox="0 0 45 45" fill="none" xmlns="http://www.w3.org/2000/svg">
<circle cx="22.5" cy="22.5" r="22.5" fill="#267C71" fill-opacity="0.5"/>
<path d="M33.6016 24.9282C33.5363 24.7462 33.4597 24.5684 33.3721 24.396L29.3105 15.1558C29.2721 15.0668 29.2171 14.9859 29.1484 14.9175C28.8582 14.6272 28.5137 14.397 28.1345 14.2399C27.7553 14.0828 27.3489 14.002 26.9385 14.002C26.528 14.002 26.1216 14.0828 25.7424 14.2399C25.3632 14.397 25.0187 14.6272 24.7285 14.9175C24.5825 15.0637 24.5004 15.2617 24.5 15.4683V17.9097H21.375V15.4683C21.3751 15.3657 21.3549 15.264 21.3157 15.1692C21.2765 15.0743 21.219 14.9882 21.1465 14.9155C20.8563 14.6253 20.5118 14.395 20.1326 14.2379C19.7534 14.0809 19.347 14 18.9365 14C18.5261 14 18.1197 14.0809 17.7405 14.2379C17.3613 14.395 17.0168 14.6253 16.7266 14.9155C16.6579 14.984 16.6029 15.0648 16.5645 15.1538L12.5029 24.3941C12.4153 24.5665 12.3387 24.7442 12.2734 24.9263C12.0435 25.5698 11.957 26.2558 12.02 26.9362C12.083 27.6167 12.2941 28.2751 12.6383 28.8654C12.9826 29.4557 13.4518 29.9636 14.013 30.3535C14.5742 30.7434 15.2138 31.0058 15.8872 31.1225C16.5605 31.2392 17.2512 31.2072 17.9108 31.0289C18.5705 30.8506 19.1832 30.5301 19.706 30.0901C20.2288 29.6501 20.6491 29.101 20.9374 28.4815C21.2257 27.8619 21.3751 27.1868 21.375 26.5034V19.4722H24.5V26.5034C24.4997 27.1869 24.6488 27.8621 24.9369 28.4819C25.225 29.1016 25.6451 29.6508 26.1679 30.0911C26.6906 30.5314 27.3033 30.852 27.963 31.0305C28.6227 31.2091 29.3134 31.2412 29.9869 31.1246C30.6603 31.0081 31.3001 30.7457 31.8614 30.3558C32.4228 29.966 32.8921 29.4581 33.2364 28.8678C33.5808 28.2774 33.7919 27.6189 33.855 26.9384C33.9181 26.2579 33.8316 25.5718 33.6016 24.9282ZM17.9287 15.9321C18.1892 15.7128 18.5142 15.5846 18.8542 15.567C19.1943 15.5493 19.5308 15.6433 19.8125 15.8345V23.0132C19.2025 22.4655 18.4594 22.0877 17.6574 21.9177C16.8555 21.7477 16.0229 21.7914 15.2432 22.0445L17.9287 15.9321ZM16.6875 29.6284C16.0694 29.6284 15.4652 29.4452 14.9513 29.1018C14.4374 28.7584 14.0369 28.2703 13.8004 27.6993C13.5639 27.1283 13.502 26.5 13.6225 25.8938C13.7431 25.2876 14.0408 24.7308 14.4778 24.2937C14.9148 23.8567 15.4717 23.5591 16.0778 23.4385C16.684 23.3179 17.3124 23.3798 17.8834 23.6163C18.4544 23.8528 18.9425 24.2534 19.2858 24.7673C19.6292 25.2812 19.8125 25.8854 19.8125 26.5034C19.8125 27.3322 19.4833 28.1271 18.8972 28.7131C18.3112 29.2992 17.5163 29.6284 16.6875 29.6284ZM26.0625 15.8335C26.3442 15.6423 26.6807 15.5484 27.0208 15.566C27.3608 15.5836 27.6858 15.7119 27.9463 15.9312L30.6318 22.0425C29.852 21.7896 29.0194 21.746 28.2175 21.9162C27.4155 22.0864 26.6724 22.4644 26.0625 23.0122V15.8335ZM29.1875 29.6284C28.5694 29.6284 27.9652 29.4452 27.4513 29.1018C26.9374 28.7584 26.5369 28.2703 26.3004 27.6993C26.0639 27.1283 26.002 26.5 26.1225 25.8938C26.2431 25.2876 26.5408 24.7308 26.9778 24.2937C27.4148 23.8567 27.9717 23.5591 28.5778 23.4385C29.184 23.3179 29.8124 23.3798 30.3834 23.6163C30.9544 23.8528 31.4425 24.2534 31.7858 24.7673C32.1292 25.2812 32.3125 25.8854 32.3125 26.5034C32.3125 27.3322 31.9833 28.1271 31.3972 28.7131C30.8112 29.2992 30.0163 29.6284 29.1875 29.6284Z" fill="white"/>
</svg>
