<svg width="33" height="34" viewBox="0 0 33 34" fill="none" xmlns="http://www.w3.org/2000/svg">
<path d="M23.2392 31.331C22.7007 31.2736 22.1596 31.228 21.6224 31.1563C20.7944 31.0467 20.0929 31.3075 19.4475 31.8147C18.9886 32.1759 18.5152 32.5267 18.0133 32.8239C17.2035 33.3025 16.3534 33.3025 15.5398 32.8331C15.0717 32.5632 14.6101 32.262 14.2072 31.906C13.3649 31.1589 12.4026 31.0285 11.3504 31.2189C11.2643 31.2345 11.1809 31.2554 11.0948 31.2658C8.96428 31.5435 8.14804 31.1315 7.37354 29.1183C6.86893 27.8053 6.08269 26.9056 4.73056 26.4871C4.3433 26.3671 3.98082 26.1507 3.63008 25.9394C2.90512 25.5026 2.51526 24.8494 2.54133 23.9953C2.5635 23.2808 2.61565 22.5663 2.69389 21.8556C2.77994 21.0707 2.53481 20.4122 2.0615 19.8033C1.71597 19.3587 1.38087 18.9023 1.08359 18.4251C0.526828 17.5346 0.53074 16.6192 1.0875 15.7274C1.35088 15.3049 1.62079 14.8772 1.95067 14.5082C2.68476 13.6881 2.81254 12.7428 2.63782 11.7114C2.62739 11.6475 2.60783 11.5849 2.5974 11.5197C2.25839 9.34225 2.68737 8.47125 4.7436 7.6811C6.06052 7.17519 6.94195 6.3733 7.36571 5.02769C7.49349 4.62088 7.71776 4.23623 7.94985 3.87375C8.37622 3.20747 8.99948 2.84368 9.80137 2.85542C10.3203 2.86324 10.8445 2.87889 11.3569 2.95582C12.4144 3.11359 13.3792 3.00536 14.2111 2.24781C14.5462 1.9427 14.9348 1.69496 15.3181 1.44852C16.2673 0.839608 17.2348 0.825265 18.1893 1.43809C18.5909 1.69496 18.9977 1.95573 19.3497 2.27388C20.149 2.99493 21.0761 3.12011 22.084 2.95973C22.2131 2.93887 22.3395 2.90627 22.4686 2.89062C24.5874 2.63376 25.388 3.03405 26.143 5.01335C26.6528 6.35244 27.4547 7.25994 28.8303 7.68762C29.2567 7.82062 29.6583 8.06444 30.0351 8.31348C30.6531 8.7216 30.9987 9.31878 30.983 10.0685C30.9674 10.8039 30.9152 11.5406 30.837 12.2734C30.7509 13.0805 30.9974 13.7598 31.4889 14.3857C31.8358 14.829 32.1735 15.2841 32.4668 15.7639C32.9988 16.6362 32.9962 17.5359 32.4616 18.4082C32.1904 18.8502 31.9009 19.2909 31.5606 19.6808C30.8722 20.467 30.7301 21.368 30.8813 22.355C30.8943 22.4411 30.9178 22.5245 30.9322 22.6106C31.279 24.822 30.85 25.6956 28.7625 26.5001C27.4664 26.9995 26.5837 27.7779 26.1899 29.1092C26.1286 29.3152 26.0165 29.5042 25.9265 29.7024C25.4037 30.859 24.5431 31.4549 23.2392 31.3336V31.331ZM10.1352 3.73293C9.36979 3.57907 8.75174 4.04847 8.38014 4.93642C8.30451 5.11635 8.20542 5.28716 8.14674 5.47232C7.66691 6.99134 6.65249 7.92753 5.15693 8.48038C3.46709 9.10494 3.20762 9.45699 3.5036 11.2081C3.79828 12.9501 3.39147 14.3726 2.22449 15.6361C2.16581 15.7 2.11627 15.773 2.06672 15.8434C1.41999 16.7861 1.3235 17.4329 2.06672 18.2674C3.4032 19.7642 3.82697 21.4019 3.47622 23.3695C3.25325 24.6238 3.58966 24.998 4.75924 25.5313C4.8779 25.5848 4.99525 25.6447 5.11912 25.6826C6.67465 26.1507 7.61345 27.1885 8.17151 28.7089C8.78565 30.3805 9.22245 30.5747 10.9892 30.3596C11.0544 30.3518 11.1183 30.3426 11.1822 30.3296C12.5135 30.0623 13.6856 30.3218 14.777 31.1889C16.635 32.6649 16.8893 32.661 18.7656 31.1706C19.8374 30.3192 20.9952 30.074 22.303 30.3179C22.5364 30.3609 22.7777 30.3752 23.015 30.387C24.3554 30.4509 24.6787 30.2527 25.2237 29.044C25.2772 28.9253 25.3359 28.808 25.3737 28.6841C25.8457 27.1586 26.8653 26.2289 28.3609 25.676C30.082 25.0397 30.2972 24.5573 30.0247 22.7488C30.0155 22.6849 29.996 22.621 29.9855 22.5571C29.773 21.2989 29.9999 20.1775 30.8122 19.1357C32.3651 17.1421 32.3638 17.0274 30.7913 14.9881C30.0325 14.0036 29.7991 12.9462 29.9569 11.7531C30.2711 9.37876 30.2124 9.2249 28.0271 8.33435C26.8027 7.83496 25.9904 7.02916 25.4963 5.79959C24.624 3.62993 24.4036 3.53865 22.0722 3.87375C20.93 4.03804 19.8687 3.87766 18.9507 3.10707C18.6522 2.85542 18.334 2.62593 18.0133 2.40297C17.0236 1.71452 16.4577 1.71973 15.4668 2.42383C15.1134 2.67548 14.7692 2.94017 14.4223 3.20225C13.7404 3.71859 12.9855 3.99632 12.1171 3.91417C11.5342 3.8581 10.9514 3.80725 10.13 3.73163L10.1352 3.73293Z" fill="black"/>
<path d="M15.314 17.7511C17.1786 15.884 18.9597 14.1055 20.733 12.3204C21.2219 11.8276 21.7539 11.4586 22.4893 11.4677C23.3812 11.4781 24.0357 11.8862 24.4321 12.6568C24.8337 13.4353 24.7555 14.2111 24.2313 14.9217C24.0775 15.1303 23.891 15.3155 23.7085 15.4993C21.5297 17.6807 19.3496 19.8608 17.1695 22.0409C15.863 23.3461 14.7977 23.3409 13.4769 22.0214C12.1704 20.7175 10.8508 19.4266 9.56781 18.1006C8.33172 16.8241 8.80764 14.8839 10.4558 14.4171C11.3046 14.1772 12.0374 14.4301 12.6502 15.0482C13.5186 15.9257 14.3844 16.8058 15.3166 17.7511H15.314ZM15.3245 22.1687C15.653 21.994 16.0064 21.8949 16.2333 21.6706C18.6116 19.321 20.982 16.9649 23.316 14.5722C23.5768 14.305 23.7671 13.7651 23.6876 13.4209C23.6015 13.048 23.2221 12.6386 22.8635 12.456C22.3563 12.1966 21.8648 12.4717 21.4671 12.8707C19.6129 14.7313 17.7458 16.5789 15.9021 18.45C15.4927 18.8646 15.1849 18.8985 14.769 18.4643C13.868 17.5242 12.9423 16.6076 12.01 15.6988C11.4141 15.1186 10.6774 15.0951 10.1533 15.5997C9.62909 16.1043 9.62518 16.8723 10.1976 17.4551C11.598 18.879 13.0114 20.2898 14.4404 21.6849C14.6569 21.8962 14.9855 21.9901 15.3245 22.1713V22.1687Z" fill="black"/>
</svg>
