<svg width="87" height="87" viewBox="0 0 87 87" fill="none" xmlns="http://www.w3.org/2000/svg">
<rect x="0.709473" y="0.735596" width="85.8566" height="85.8566" rx="16" fill="#083B75"/>
<path d="M27.4531 41.4105C59.6494 41.4105 59.6494 41.4105 59.6494 41.4105C61.1304 38.0406 61.9675 35.9586 61.9675 35.9586C64.5003 29.455 64.2856 23.767 59.6494 19.9893C55.8717 17.0487 51.45 16.8341 47.6509 18.7229" stroke="white" stroke-miterlimit="10" stroke-linecap="round" stroke-linejoin="round"/>
<path d="M49.3241 23.5523C45.3318 22.9298 43.0137 21.0409 43.0137 21.0409C38.3774 17.0486 32.4963 16.2115 27.6454 19.9892C22.8159 23.7669 23.0091 31.1291 25.1126 35.9585C25.1126 35.9585 25.3272 36.3878 25.5419 37.2249" stroke="white" stroke-miterlimit="10" stroke-linecap="round" stroke-linejoin="round"/>
<path d="M29.9639 41.6252V46.6693" stroke="white" stroke-miterlimit="1"/>
<path d="M57.3311 41.6255V46.6696" stroke="white" stroke-miterlimit="1" stroke-linecap="round"/>
<path d="M39.0225 55.491L32.2827 56.3281" stroke="white" stroke-miterlimit="1" stroke-linecap="round"/>
<path d="M56.6865 52.958L43.2285 54.8683" stroke="white" stroke-miterlimit="1" stroke-linecap="round"/>
<path d="M37.5398 48.9656L29.5552 50.0173" stroke="white" stroke-miterlimit="1" stroke-linecap="round"/>
<path d="M59.6271 46.0249L42.1768 48.343" stroke="white" stroke-miterlimit="1" stroke-linecap="round"/>
<path d="M52.6947 60.1055L35.4375 62.4236" stroke="white" stroke-miterlimit="1" stroke-linecap="round"/>
<path d="M33.3341 52.7655C31.853 50.0396 31.853 50.0395 31.853 50.0395M36.4893 58.6467C35.0083 56.1354 35.0083 56.1354 35.0083 56.1354M57.331 46.6697C45.1179 68.7348 45.1179 68.7348 45.1179 68.7348C44.2808 70.2159 43.0144 70.2159 42.1773 68.7348C38.3996 62.0165 38.3996 62.0165 38.3996 62.0165" stroke="white" stroke-miterlimit="1"/>
</svg>
