<svg width="87" height="87" viewBox="0 0 87 87" fill="none" xmlns="http://www.w3.org/2000/svg">
<rect x="0.667969" y="0.736084" width="85.8566" height="85.8566" rx="16" fill="#0296FC"/>
<path d="M7.29883 51.7356C12.8151 51.7356 11.8063 58.0675 14.8327 58.0675C17.9665 58.0675 19.3188 49.4389 23.4399 49.4389C27.9473 49.4389 28.3981 58.0031 31.768 58.0031C37.2842 58.0031 37.5847 43.1929 43.5947 43.1929C49.111 43.1929 50.5706 58.0246 55.2712 58.0246C59.4996 58.0246 59.2421 49.4175 63.492 49.4175C68.0209 49.4175 69.3088 58.0031 72.3781 58.0031C75.4904 58.0031 74.6319 51.6283 80.0838 51.6283" stroke="white" stroke-width="4.02857" stroke-miterlimit="10" stroke-linecap="round"/>
<path d="M7.10596 44.0294C8.28649 43.6001 8.28649 43.1708 9.57433 43.1708C11.4846 43.1708 13.0086 45.6821 14.8331 45.6821C19.7269 45.6821 20.564 35.3149 25.6724 35.3149C29.3214 35.3149 29.9223 39.3287 31.4248 43.5357C32.8629 47.528 34.9664 51.4131 37.1128 51.8638" stroke="white" stroke-width="4.02857" stroke-miterlimit="10" stroke-linecap="round"/>
<path d="M80.0863 43.4073C79.0775 42.9566 78.4121 42.7634 77.2745 42.7634C75.6003 42.7634 74.1193 46.2191 71.5436 46.2191C66.2849 46.2191 67.8303 29.2625 62.314 29.2625C58.708 29.2625 57.5704 35.6373 55.6172 41.3897C53.9215 46.3908 51.6463 50.6407 49.9077 50.6407" stroke="white" stroke-width="4.02857" stroke-miterlimit="10" stroke-linecap="round"/>
</svg>
