<svg width="85" height="85" viewBox="0 0 85 85" fill="none" xmlns="http://www.w3.org/2000/svg">
<g id="Group 7">
<circle id="Ellipse 3" cx="42.5" cy="42.5" r="42.5" fill="#267C71"/>
<path id="Vector" d="M42.1101 34.5905C41.0585 34.5905 40.0305 34.909 39.1562 35.5057C38.2818 36.1025 37.6003 36.9507 37.1979 37.9431C36.7955 38.9354 36.6902 40.0274 36.8953 41.0809C37.1005 42.1344 37.6069 43.1021 38.3505 43.8616C39.094 44.6212 40.0414 45.1384 41.0728 45.348C42.1042 45.5575 43.1732 45.45 44.1448 45.0389C45.1163 44.6278 45.9467 43.9318 46.531 43.0386C47.1152 42.1455 47.427 41.0955 47.427 40.0214C47.427 38.581 46.8668 37.1996 45.8697 36.1811C44.8726 35.1627 43.5202 34.5905 42.1101 34.5905ZM42.1101 43.2799C41.4791 43.2799 40.8624 43.0888 40.3377 42.7308C39.8131 42.3727 39.4042 41.8638 39.1628 41.2684C38.9213 40.673 38.8581 40.0178 38.9812 39.3857C39.1043 38.7536 39.4082 38.173 39.8543 37.7172C40.3005 37.2615 40.8689 36.9512 41.4877 36.8254C42.1066 36.6997 42.748 36.7642 43.3309 37.0109C43.9138 37.2575 44.4121 37.6752 44.7626 38.211C45.1131 38.7469 45.3002 39.3769 45.3002 40.0214C45.3002 40.8856 44.9641 41.7144 44.3659 42.3255C43.7676 42.9366 42.9562 43.2799 42.1101 43.2799ZM42.1101 28.0734C39.0089 28.077 36.0357 29.3369 33.8428 31.5768C31.6499 33.8167 30.4164 36.8537 30.4128 40.0214C30.4128 44.2847 32.3416 48.8032 35.9956 53.0895C37.6375 55.0264 39.4855 56.7705 41.5053 58.2896C41.6841 58.4176 41.8971 58.4862 42.1154 58.4862C42.3337 58.4862 42.5467 58.4176 42.7255 58.2896C44.7416 56.7699 46.586 55.0258 48.2246 53.0895C51.8733 48.8032 53.8073 44.2847 53.8073 40.0214C53.8038 36.8537 52.5703 33.8167 50.3774 31.5768C48.1845 29.3369 45.2113 28.077 42.1101 28.0734ZM42.1101 56.0426C39.9129 54.2776 32.5396 47.7944 32.5396 40.0214C32.5396 37.4287 33.5479 34.9422 35.3427 33.109C37.1376 31.2757 39.5718 30.2457 42.1101 30.2457C44.6483 30.2457 47.0826 31.2757 48.8774 33.109C50.6722 34.9422 51.6806 37.4287 51.6806 40.0214C51.6806 47.7917 44.3073 54.2776 42.1101 56.0426Z" fill="white"/>
</g>
</svg>
