<svg width="85" height="85" viewBox="0 0 85 85" fill="none" xmlns="http://www.w3.org/2000/svg">
<g id="Group 11">
<circle id="Ellipse 3" cx="42.5" cy="42.5" r="42.5" fill="#267C71"/>
<g id="Vector">
<path d="M35.812 29.6838C37.811 27.9602 40.3605 27.0083 43 27C48.38 27 52.846 30.9998 53.332 36.1575C56.516 36.6075 59 39.2733 59 42.5451C59 46.1369 56.004 48.9988 52.374 48.9988H47C46.7348 48.9988 46.4804 48.8934 46.2929 48.7059C46.1054 48.5184 46 48.264 46 47.9988C46 47.7336 46.1054 47.4793 46.2929 47.2918C46.4804 47.1042 46.7348 46.9989 47 46.9989H52.376C54.958 46.9989 57 44.975 57 42.5451C57 40.1133 54.96 38.0894 52.374 38.0894H51.374V37.0894C51.376 32.6497 47.656 28.9999 43 28.9999C40.8398 29.0085 38.7537 29.7887 37.118 31.1998C35.604 32.5037 34.812 34.0756 34.812 35.3095V36.2055L33.922 36.3035C31.128 36.6095 29 38.9033 29 41.6352C29 44.569 31.46 46.9989 34.562 46.9989H39C39.2652 46.9989 39.5196 47.1042 39.7071 47.2918C39.8946 47.4793 40 47.7336 40 47.9988C40 48.264 39.8946 48.5184 39.7071 48.7059C39.5196 48.8934 39.2652 48.9988 39 48.9988H34.562C30.416 48.9988 27 45.731 27 41.6352C27 38.1094 29.532 35.1895 32.884 34.4496C33.17 32.7237 34.28 31.0038 35.812 29.6838Z" fill="white"/>
<path d="M42.292 58.7062C42.3849 58.7993 42.4952 58.8732 42.6167 58.9236C42.7382 58.9741 42.8685 59 43 59C43.1315 59 43.2618 58.9741 43.3833 58.9236C43.5048 58.8732 43.6151 58.7993 43.708 58.7062L49.708 52.7066C49.8958 52.5188 50.0013 52.2641 50.0013 51.9986C50.0013 51.7331 49.8958 51.4784 49.708 51.2906C49.5202 51.1029 49.2656 50.9974 49 50.9974C48.7344 50.9974 48.4798 51.1029 48.292 51.2906L44 55.5844V37.9994C44 37.7342 43.8946 37.4798 43.7071 37.2923C43.5196 37.1048 43.2652 36.9994 43 36.9994C42.7348 36.9994 42.4804 37.1048 42.2929 37.2923C42.1054 37.4798 42 37.7342 42 37.9994V55.5844L37.708 51.2906C37.5202 51.1029 37.2656 50.9974 37 50.9974C36.7344 50.9974 36.4798 51.1029 36.292 51.2906C36.1042 51.4784 35.9987 51.7331 35.9987 51.9986C35.9987 52.2641 36.1042 52.5188 36.292 52.7066L42.292 58.7062Z" fill="white"/>
</g>
</g>
</svg>
