<svg width="85" height="85" viewBox="0 0 85 85" fill="none" xmlns="http://www.w3.org/2000/svg">
<g id="Group 9">
<circle id="Ellipse 3" cx="42.5" cy="42.5" r="42.5" fill="#267C71"/>
<path id="Vector" d="M43 30C40.3478 30 37.8043 31.0536 35.9289 32.9289C34.0536 34.8043 33 37.3478 33 40V42H35C35.5304 42 36.0391 42.2107 36.4142 42.5858C36.7893 42.9609 37 43.4696 37 44V50C37 50.5304 36.7893 51.0391 36.4142 51.4142C36.0391 51.7893 35.5304 52 35 52H33C32.4696 52 31.9609 51.7893 31.5858 51.4142C31.2107 51.0391 31 50.5304 31 50V40C31 38.4241 31.3104 36.8637 31.9134 35.4078C32.5165 33.9519 33.4004 32.629 34.5147 31.5147C35.629 30.4004 36.9519 29.5165 38.4078 28.9134C39.8637 28.3104 41.4241 28 43 28C44.5759 28 46.1363 28.3104 47.5922 28.9134C49.0481 29.5165 50.371 30.4004 51.4853 31.5147C52.5996 32.629 53.4835 33.9519 54.0866 35.4078C54.6896 36.8637 55 38.4241 55 40V52C55 53.3261 54.4732 54.5979 53.5355 55.5355C52.5979 56.4732 51.3261 57 50 57H45.732C45.5565 57.304 45.304 57.5565 45 57.732C44.6959 57.9076 44.3511 58 44 58H42C41.4696 58 40.9609 57.7893 40.5858 57.4142C40.2107 57.0391 40 56.5304 40 56C40 55.4696 40.2107 54.9609 40.5858 54.5858C40.9609 54.2107 41.4696 54 42 54H44C44.3511 54 44.6959 54.0924 45 54.268C45.304 54.4435 45.5565 54.696 45.732 55H50C50.7956 55 51.5587 54.6839 52.1213 54.1213C52.6839 53.5587 53 52.7956 53 52H51C50.4696 52 49.9609 51.7893 49.5858 51.4142C49.2107 51.0391 49 50.5304 49 50V44C49 43.4696 49.2107 42.9609 49.5858 42.5858C49.9609 42.2107 50.4696 42 51 42H53V40C53 38.6868 52.7413 37.3864 52.2388 36.1732C51.7362 34.9599 50.9997 33.8575 50.0711 32.9289C49.1425 32.0003 48.0401 31.2638 46.8268 30.7612C45.6136 30.2587 44.3132 30 43 30Z" fill="white"/>
</g>
</svg>
