<svg width="115" height="115" viewBox="0 0 115 115" fill="none" xmlns="http://www.w3.org/2000/svg">
<g id="Group 20">
<circle id="Ellipse 4" cx="57.5" cy="57.5" r="57.5" fill="#267C71"/>
<g id="Vector">
<path d="M57.4326 80C53.4861 79.9248 49.7919 78.9693 46.3484 77.0367C46.1338 76.9159 45.8038 76.8918 45.5597 76.9522C43.9553 77.3521 42.3631 77.8004 40.7614 78.211C38.2074 78.866 36.104 76.7616 36.764 74.213C37.1785 72.6106 37.6252 71.0175 38.0276 69.4138C38.088 69.1695 38.0612 68.8394 37.9404 68.6246C35.8425 64.9004 34.886 60.9051 35.0108 56.6413C35.2911 47.0657 42.0344 38.4509 51.2795 35.8674C63.6715 32.4049 76.1359 39.6118 79.3164 52.0769C82.3051 63.7905 75.213 75.9322 63.5199 79.1048C62.6346 79.3451 61.7331 79.5504 60.8263 79.6779C59.7022 79.8363 58.5647 79.8967 57.4326 79.9987V80ZM39.8466 75.1082C40.0706 75.0599 40.1994 75.0384 40.3241 75.0048C42.0358 74.5499 43.7541 74.1191 45.4537 73.6238C46.1741 73.4145 46.7723 73.5124 47.4028 73.8949C51.91 76.6274 56.7592 77.3937 61.8753 76.2167C71.8635 73.9191 78.1977 64.3018 76.4753 54.141C75.0615 45.8014 68.0713 39.1877 59.6928 38.3234C54.1045 37.7477 49.1372 39.2669 44.8514 42.9281C37.8492 48.9137 36.1429 59.4717 40.9385 67.3336C41.4321 68.1428 41.5623 68.8796 41.2846 69.7922C40.7614 71.5168 40.3375 73.2709 39.8466 75.1082Z" fill="white"/>
<path d="M64.7419 52.4245C64.691 54.3558 63.7184 56.3608 61.713 57.7754C60.0027 58.9805 59.1469 60.5789 59.0946 62.6471C59.0704 63.5919 58.3689 64.2683 57.4607 64.2535C56.5633 64.2388 55.8671 63.5288 55.8899 62.5853C55.9624 59.5496 57.1616 57.0896 59.6607 55.306C61.1952 54.2122 61.8257 52.6205 61.4193 50.8946C60.9591 48.9392 59.1295 47.6656 57.0489 47.8521C55.1615 48.0212 53.5787 49.672 53.4579 51.5831C53.4392 51.881 53.4123 52.191 53.3144 52.4688C53.0622 53.1828 52.2949 53.5948 51.5397 53.4633C50.8033 53.3345 50.2613 52.6849 50.2372 51.8984C50.1433 48.8224 52.2923 45.886 55.3265 44.9452C60.0483 43.481 64.7607 46.9623 64.7419 52.4245Z" fill="white"/>
<path d="M59.1174 68.7226C59.1174 69.599 58.4145 70.321 57.5452 70.3358C56.6747 70.3505 55.9047 69.5936 55.9047 68.7239C55.9047 67.8543 56.617 67.1363 57.4916 67.1269C58.4037 67.1175 59.116 67.8167 59.1174 68.7226Z" fill="white"/>
</g>
</g>
</svg>
