<svg width="85" height="85" viewBox="0 0 85 85" fill="none" xmlns="http://www.w3.org/2000/svg">
<g id="Group 10">
<circle id="Ellipse 3" cx="42.5" cy="42.5" r="42.5" fill="#267C71"/>
<g id="Vector">
<path d="M36.9734 42.0644C36.9734 42.5973 36.7633 43.1084 36.3892 43.4852C36.0151 43.862 35.5077 44.0736 34.9787 44.0736C34.4497 44.0736 33.9423 43.862 33.5683 43.4852C33.1942 43.1084 32.984 42.5973 32.984 42.0644C32.984 41.5316 33.1942 41.0205 33.5683 40.6437C33.9423 40.2669 34.4497 40.0552 34.9787 40.0552C35.5077 40.0552 36.0151 40.2669 36.3892 40.6437C36.7633 41.0205 36.9734 41.5316 36.9734 42.0644ZM44.9521 42.0644C44.9521 42.5973 44.742 43.1084 44.3679 43.4852C43.9938 43.862 43.4865 44.0736 42.9574 44.0736C42.4284 44.0736 41.9211 43.862 41.547 43.4852C41.1729 43.1084 40.9628 42.5973 40.9628 42.0644C40.9628 41.5316 41.1729 41.0205 41.547 40.6437C41.9211 40.2669 42.4284 40.0552 42.9574 40.0552C43.4865 40.0552 43.9938 40.2669 44.3679 40.6437C44.742 41.0205 44.9521 41.5316 44.9521 42.0644ZM50.9362 44.0736C51.4652 44.0736 51.9725 43.862 52.3466 43.4852C52.7207 43.1084 52.9309 42.5973 52.9309 42.0644C52.9309 41.5316 52.7207 41.0205 52.3466 40.6437C51.9725 40.2669 51.4652 40.0552 50.9362 40.0552C50.4071 40.0552 49.8998 40.2669 49.5257 40.6437C49.1516 41.0205 48.9415 41.5316 48.9415 42.0644C48.9415 42.5973 49.1516 43.1084 49.5257 43.4852C49.8998 43.862 50.4071 44.0736 50.9362 44.0736Z" fill="white"/>
<path d="M31.3185 57.7423L31.3584 57.7342C35.0086 57.0049 37.2387 56.0425 38.2759 55.514C39.803 55.9243 41.377 56.131 42.9574 56.1289C51.7699 56.1289 58.9149 49.832 58.9149 42.0644C58.9149 34.2968 51.7699 28 42.9574 28C34.1449 28 27 34.2968 27 42.0644C27 45.6006 28.482 48.8354 30.9295 51.3068C30.7583 52.8942 30.4076 54.4568 29.8843 55.9641L29.8783 55.9862C29.7296 56.4179 29.5673 56.8448 29.3916 57.2661C29.234 57.6398 29.5392 58.0577 29.9362 57.9934C30.3983 57.9172 30.8591 57.8335 31.3185 57.7423ZM32.9142 51.4976C32.9422 51.2035 32.9054 50.9068 32.8064 50.6286C32.7074 50.3504 32.5488 50.0976 32.3418 49.8883C30.2274 47.7505 28.9947 45.0139 28.9947 42.0644C28.9947 35.6511 34.9867 30.0092 42.9574 30.0092C50.9282 30.0092 56.9202 35.6511 56.9202 42.0644C56.9202 48.4798 50.9282 54.1197 42.9574 54.1197C41.5514 54.1217 40.1512 53.938 38.7926 53.5732C38.3178 53.445 37.8127 53.498 37.3743 53.7218C36.6024 54.1156 34.9009 54.8671 32.1203 55.5161C32.5083 54.2043 32.774 52.859 32.9142 51.4976Z" fill="white"/>
</g>
</g>
</svg>
