<svg width="24" height="29" viewBox="0 0 24 29" fill="none" xmlns="http://www.w3.org/2000/svg">
<path id="Vector" d="M12 4.14286C9.62663 4.14286 7.30655 4.87178 5.33316 6.23745C3.35977 7.60312 1.8217 9.54419 0.913451 11.8152C0.00519943 14.0862 -0.232441 16.5852 0.230582 18.9961C0.693605 21.407 1.83649 23.6216 3.51472 25.3598C5.19295 27.0979 7.33115 28.2816 9.65892 28.7612C11.9867 29.2407 14.3995 28.9946 16.5922 28.0539C18.7849 27.1132 20.6591 25.5202 21.9776 23.4764C23.2962 21.4325 24 19.0296 24 16.5714C23.9964 13.2763 22.7309 10.1173 20.4813 7.78726C18.2316 5.45727 15.1815 4.14663 12 4.14286ZM12 26.9286C10.0222 26.9286 8.08879 26.3211 6.4443 25.1831C4.79981 24.045 3.51809 22.4275 2.76121 20.5349C2.00433 18.6424 1.8063 16.5599 2.19215 14.5508C2.578 12.5418 3.53041 10.6963 4.92894 9.24782C6.32746 7.79935 8.10929 6.81293 10.0491 6.41329C11.9889 6.01366 13.9996 6.21877 15.8268 7.00268C17.6541 7.78658 19.2159 9.11408 20.3147 10.8173C21.4135 12.5205 22 14.523 22 16.5714C21.997 19.3174 20.9425 21.95 19.0678 23.8916C17.1931 25.8333 14.6513 26.9255 12 26.9286ZM17.7075 10.6601C17.8005 10.7563 17.8742 10.8705 17.9246 10.9962C17.9749 11.122 18.0008 11.2567 18.0008 11.3929C18.0008 11.529 17.9749 11.6637 17.9246 11.7895C17.8742 11.9152 17.8005 12.0294 17.7075 12.1256L12.7075 17.3042C12.6146 17.4004 12.5043 17.4768 12.3829 17.5288C12.2615 17.5809 12.1314 17.6077 12 17.6077C11.8686 17.6077 11.7385 17.5809 11.6171 17.5288C11.4957 17.4768 11.3854 17.4004 11.2925 17.3042C11.1996 17.208 11.1259 17.0937 11.0756 16.968C11.0253 16.8423 10.9994 16.7075 10.9994 16.5714C10.9994 16.4353 11.0253 16.3006 11.0756 16.1749C11.1259 16.0491 11.1996 15.9349 11.2925 15.8387L16.2925 10.6601C16.3854 10.5638 16.4957 10.4874 16.6171 10.4353C16.7385 10.3832 16.8686 10.3563 17 10.3563C17.1314 10.3563 17.2615 10.3832 17.3829 10.4353C17.5043 10.4874 17.6146 10.5638 17.7075 10.6601ZM8 1.03571C8 0.761026 8.10536 0.497588 8.2929 0.303354C8.48043 0.10912 8.73479 0 9 0H15C15.2652 0 15.5196 0.10912 15.7071 0.303354C15.8946 0.497588 16 0.761026 16 1.03571C16 1.3104 15.8946 1.57384 15.7071 1.76807C15.5196 1.96231 15.2652 2.07143 15 2.07143H9C8.73479 2.07143 8.48043 1.96231 8.2929 1.76807C8.10536 1.57384 8 1.3104 8 1.03571Z" fill="#696969"/>
</svg>
