<svg width="80" height="80" viewBox="0 0 80 80" fill="none" xmlns="http://www.w3.org/2000/svg">
<g id="button-slider">
<path id="Vector" d="M37.293 49.7074L28.2933 40.7077C28.2003 40.6148 28.1265 40.5045 28.0762 40.3832C28.0259 40.2618 28 40.1316 28 40.0002C28 39.8688 28.0259 39.7387 28.0762 39.6173C28.1265 39.4959 28.2003 39.3856 28.2933 39.2928L37.293 30.293C37.4806 30.1054 37.7351 30 38.0005 30C38.2658 30 38.5203 30.1054 38.7079 30.293C38.8956 30.4807 39.001 30.7352 39.001 31.0005C39.001 31.2659 38.8956 31.5204 38.7079 31.708L31.4144 39.0003L51 39.0003C51.2652 39.0003 51.5196 39.1056 51.7071 39.2931C51.8946 39.4807 52 39.735 52 40.0002C52 40.2654 51.8946 40.5198 51.7071 40.7073C51.5196 40.8948 51.2652 41.0002 51 41.0002L31.4144 41.0002L38.7079 48.2925C38.8956 48.4801 39.001 48.7346 39.001 48.9999C39.001 49.2653 38.8956 49.5198 38.7079 49.7074C38.5203 49.895 38.2658 50.0005 38.0005 50.0005C37.7351 50.0005 37.4806 49.895 37.293 49.7074Z" fill="white"/>
<circle id="Ellipse 1" cx="40" cy="40" r="39.5" stroke="white"/>
</g>
</svg>
