<svg width="24" height="29" viewBox="0 0 24 29" fill="none" xmlns="http://www.w3.org/2000/svg">
<path id="Vector" d="M18.5455 27.9644C18.5455 28.2391 18.4305 28.5025 18.2259 28.6967C18.0214 28.8909 17.7439 29 17.4546 29H6.54557C6.25625 29 5.97877 28.8909 5.77419 28.6967C5.56961 28.5025 5.45467 28.2391 5.45467 27.9644C5.45467 27.6897 5.56961 27.4263 5.77419 27.2321C5.97877 27.0379 6.25625 26.9288 6.54557 26.9288H17.4546C17.7439 26.9288 18.0214 27.0379 18.2259 27.2321C18.4305 27.4263 18.5455 27.6897 18.5455 27.9644ZM24 11.3949C24.0047 13.1213 23.5938 14.8259 22.7988 16.3786C22.0038 17.9313 20.8457 19.291 19.4127 20.3541C19.1448 20.549 18.9274 20.7996 18.7771 21.0865C18.6267 21.3735 18.5475 21.6893 18.5455 22.0097V22.7864C18.5455 23.3357 18.3156 23.8626 17.9064 24.251C17.4973 24.6394 16.9423 24.8576 16.3637 24.8576H7.63647C7.05782 24.8576 6.50287 24.6394 6.09371 24.251C5.68454 23.8626 5.45467 23.3357 5.45467 22.7864V22.0097C5.45445 21.6931 5.37776 21.3807 5.23048 21.0966C5.08321 20.8125 4.86928 20.5642 4.60514 20.3709C3.17597 19.3143 2.01869 17.9629 1.22089 16.419C0.423086 14.8751 0.00565262 13.1792 0.00017843 11.4596C-0.0352758 5.28873 5.2174 0.152173 11.711 0.00330638C13.311 -0.0332959 14.9025 0.234313 16.392 0.790383C17.8814 1.34645 19.2386 2.17974 20.3837 3.24122C21.5288 4.30269 22.4386 5.57089 23.0597 6.97117C23.6807 8.37146 24.0004 9.87553 24 11.3949ZM21.8182 11.3949C21.8185 10.1517 21.5569 8.92105 21.0488 7.77531C20.5406 6.62958 19.7961 5.59193 18.8591 4.72344C17.9222 3.85495 16.8116 3.17318 15.5929 2.71826C14.3742 2.26334 13.072 2.04446 11.7628 2.0745C6.44467 2.19359 2.15334 6.39682 2.18198 11.4454C2.18686 12.8519 2.52873 14.2391 3.18172 15.5017C3.83471 16.7644 4.78171 17.8695 5.95103 18.7334C6.47663 19.1212 6.90177 19.6181 7.19391 20.186C7.48604 20.7539 7.63743 21.3777 7.63647 22.0097V22.7864H10.9092V17.0013L6.86466 13.1631C6.65996 12.9688 6.54497 12.7053 6.54497 12.4305C6.54497 12.1557 6.65996 11.8921 6.86466 11.6978C7.06936 11.5035 7.34699 11.3943 7.63647 11.3943C7.92596 11.3943 8.20359 11.5035 8.40828 11.6978L12.0001 15.1088L15.5919 11.6978C15.6932 11.6016 15.8135 11.5252 15.946 11.4732C16.0784 11.4211 16.2203 11.3943 16.3637 11.3943C16.507 11.3943 16.6489 11.4211 16.7814 11.4732C16.9138 11.5252 17.0341 11.6016 17.1355 11.6978C17.2368 11.794 17.3172 11.9082 17.3721 12.0339C17.4269 12.1596 17.4552 12.2944 17.4552 12.4305C17.4552 12.5665 17.4269 12.7013 17.3721 12.827C17.3172 12.9527 17.2368 13.0669 17.1355 13.1631L13.091 17.0013V22.7864H16.3637V22.0097C16.3649 21.3759 16.5187 20.7507 16.8134 20.182C17.1081 19.6132 17.5359 19.1159 18.0641 18.7282C19.237 17.8581 20.1849 16.7451 20.8355 15.4741C21.4861 14.2032 21.8222 12.8079 21.8182 11.3949Z" fill="#696969"/>
</svg>
