<svg width="52" height="52" viewBox="0 0 52 52" fill="none" xmlns="http://www.w3.org/2000/svg">
<path d="M27.625 14.625H24.375C22.6517 14.6269 20.9995 15.3123 19.7809 16.5309C18.5623 17.7495 17.8769 19.4017 17.875 21.125V30.875C17.8769 32.5983 18.5623 34.2505 19.7809 35.4691C20.9995 36.6877 22.6517 37.3731 24.375 37.375H27.625C29.3483 37.3731 31.0005 36.6877 32.2191 35.4691C33.4377 34.2505 34.1231 32.5983 34.125 30.875V21.125C34.1231 19.4017 33.4377 17.7495 32.2191 16.5309C31.0005 15.3123 29.3483 14.6269 27.625 14.625ZM32.5 30.875C32.4987 32.1675 31.9846 33.4067 31.0707 34.3207C30.1567 35.2346 28.9175 35.7487 27.625 35.75H24.375C23.0825 35.7487 21.8433 35.2346 20.9293 34.3207C20.0154 33.4067 19.5013 32.1675 19.5 30.875V21.125C19.5013 19.8325 20.0154 18.5933 20.9293 17.6793C21.8433 16.7654 23.0825 16.2513 24.375 16.25H27.625C28.9175 16.2513 30.1567 16.7654 31.0707 17.6793C31.9846 18.5933 32.4987 19.8325 32.5 21.125V30.875ZM26.8125 19.5V24.375C26.8125 24.5905 26.7269 24.7972 26.5745 24.9495C26.4222 25.1019 26.2155 25.1875 26 25.1875C25.7845 25.1875 25.5778 25.1019 25.4255 24.9495C25.2731 24.7972 25.1875 24.5905 25.1875 24.375V19.5C25.1875 19.2845 25.2731 19.0778 25.4255 18.9255C25.5778 18.7731 25.7845 18.6875 26 18.6875C26.2155 18.6875 26.4222 18.7731 26.5745 18.9255C26.7269 19.0778 26.8125 19.2845 26.8125 19.5Z" fill="white"/>
<circle cx="26" cy="26" r="25.5" stroke="white"/>
</svg>
