<svg width="80" height="80" viewBox="0 0 80 80" fill="none" xmlns="http://www.w3.org/2000/svg">
<g id="button-slider">
<circle id="Ellipse 1" cx="40" cy="40" r="39.5" transform="matrix(-1 0 0 1 80 0)" stroke="white"/>
<path id="Vector" d="M42.707 49.7074L51.7067 40.7077C51.7997 40.6148 51.8735 40.5045 51.9238 40.3832C51.9741 40.2618 52 40.1316 52 40.0002C52 39.8688 51.9741 39.7387 51.9238 39.6173C51.8735 39.4959 51.7997 39.3856 51.7067 39.2928L42.707 30.293C42.5194 30.1054 42.2649 30 41.9995 30C41.7342 30 41.4797 30.1054 41.2921 30.293C41.1044 30.4807 40.999 30.7352 40.999 31.0005C40.999 31.2659 41.1044 31.5204 41.2921 31.708L48.5856 39.0003L29 39.0003C28.7348 39.0003 28.4804 39.1056 28.2929 39.2931C28.1054 39.4807 28 39.735 28 40.0002C28 40.2654 28.1054 40.5198 28.2929 40.7073C28.4804 40.8948 28.7348 41.0002 29 41.0002L48.5856 41.0002L41.2921 48.2925C41.1044 48.4801 40.999 48.7346 40.999 48.9999C40.999 49.2653 41.1044 49.5198 41.2921 49.7074C41.4797 49.895 41.7342 50.0005 41.9995 50.0005C42.2649 50.0005 42.5194 49.895 42.707 49.7074Z" fill="white"/>
</g>
</svg>
