<svg width="45" height="45" viewBox="0 0 45 45" fill="none" xmlns="http://www.w3.org/2000/svg">
<path d="M22.4326 45C18.4861 44.9248 14.7919 43.9693 11.3484 42.0367C11.1338 41.9159 10.8038 41.8918 10.5597 41.9522C8.95535 42.3521 7.36309 42.8004 5.76144 43.211C3.20738 43.866 1.10404 41.7616 1.76402 39.213C2.17851 37.6106 2.62521 36.0175 3.02763 34.4138C3.08799 34.1695 3.06117 33.8394 2.94044 33.6246C0.842463 29.9004 -0.113967 25.9051 0.0107843 21.6413C0.29114 12.0657 7.03444 3.45092 16.2795 0.867444C28.6715 -2.59509 41.1359 4.61181 44.3164 17.0769C47.3051 28.7905 40.213 40.9322 28.5199 44.1048C27.6346 44.3451 26.7331 44.5504 25.8263 44.6779C24.7022 44.8363 23.5647 44.8967 22.4326 44.9987V45ZM4.84659 40.1082C5.07061 40.0599 5.19938 40.0384 5.32413 40.0048C7.03578 39.5499 8.75414 39.1191 10.4537 38.6238C11.1741 38.4145 11.7723 38.5124 12.4028 38.8949C16.91 41.6274 21.7592 42.3937 26.8753 41.2167C36.8635 38.9191 43.1977 29.3018 41.4753 19.141C40.0615 10.8014 33.0713 4.18772 24.6928 3.32343C19.1045 2.74768 14.1372 4.2669 9.85142 7.92806C2.84922 13.9137 1.14294 24.4717 5.9385 32.3336C6.43215 33.1428 6.56226 33.8796 6.28459 34.7922C5.76144 36.5168 5.33755 38.2709 4.84659 40.1082Z" fill="white"/>
<path d="M29.7419 17.4245C29.691 19.3558 28.7184 21.3608 26.713 22.7754C25.0027 23.9805 24.1469 25.5789 24.0946 27.6471C24.0704 28.5919 23.3689 29.2683 22.4607 29.2535C21.5633 29.2388 20.8671 28.5288 20.8899 27.5853C20.9624 24.5496 22.1616 22.0896 24.6607 20.306C26.1952 19.2122 26.8257 17.6205 26.4193 15.8946C25.9591 13.9392 24.1295 12.6656 22.0489 12.8521C20.1615 13.0212 18.5787 14.672 18.4579 16.5831C18.4392 16.881 18.4123 17.191 18.3144 17.4688C18.0622 18.1828 17.2949 18.5948 16.5397 18.4633C15.8033 18.3345 15.2613 17.6849 15.2372 16.8984C15.1433 13.8224 17.2923 10.886 20.3265 9.94519C25.0483 8.48099 29.7607 11.9623 29.7419 17.4245Z" fill="white"/>
<path d="M24.1174 33.7226C24.1174 34.599 23.4145 35.321 22.5452 35.3358C21.6747 35.3505 20.9047 34.5936 20.9047 33.7239C20.9047 32.8543 21.617 32.1363 22.4916 32.1269C23.4037 32.1175 24.116 32.8167 24.1174 33.7226Z" fill="white"/>
</svg>
