<svg width="26" height="29" viewBox="0 0 26 29" fill="none" xmlns="http://www.w3.org/2000/svg">
<path id="Vector" d="M24.96 6.49183L13.96 0.25649C13.6661 0.0882493 13.3358 0 13 0C12.6642 0 12.3339 0.0882493 12.04 0.25649L1.04 6.49442C0.725861 6.67249 0.463629 6.93466 0.28069 7.25357C0.0977502 7.57248 0.000812822 7.93642 0 8.3074V20.6926C0.000812822 21.0636 0.0977502 21.4275 0.28069 21.7464C0.463629 22.0653 0.725861 22.3275 1.04 22.5056L12.04 28.7435C12.3339 28.9118 12.6642 29 13 29C13.3358 29 13.6661 28.9118 13.96 28.7435L24.96 22.5056C25.2741 22.3275 25.5364 22.0653 25.7193 21.7464C25.9023 21.4275 25.9992 21.0636 26 20.6926V8.30869C25.9999 7.93706 25.9032 7.57231 25.7203 7.25265C25.5373 6.933 25.2747 6.67021 24.96 6.49183ZM13 2.06947L23.0425 7.76739L13 13.4653L2.9575 7.76739L13 2.06947ZM2 9.58036L12 15.2498V26.3594L2 20.6939V9.58036ZM14 26.3594V15.255L24 9.58036V20.6887L14 26.3594Z" fill="#696969"/>
</svg>
